<?xml version="1.0" encoding="UTF-8"?>
<!DOCTYPE svg PUBLIC "-//W3C//DTD SVG 1.1//EN" "http://www.w3.org/Graphics/SVG/1.1/DTD/svg11.dtd">
<svg xmlns="http://www.w3.org/2000/svg" version="1.1" width="400px" height="124px" style="shape-rendering:geometricPrecision; text-rendering:geometricPrecision; image-rendering:optimizeQuality; fill-rule:evenodd; clip-rule:evenodd" xmlns:xlink="http://www.w3.org/1999/xlink">
<g><path style="opacity:0.944" fill="#000000" d="M 273.5,0.5 C 280.549,-0.282067 287.216,0.8846 293.5,4C 297.202,9.54512 298.202,15.5451 296.5,22C 297.024,28.4428 300.357,30.2761 306.5,27.5C 308.374,27.3898 309.874,28.0564 311,29.5C 312.706,39.7934 308.372,45.4601 298,46.5C 297.333,64.1667 297.333,81.8333 298,99.5C 300.163,101.832 302.663,102.498 305.5,101.5C 310.916,102.569 312.916,105.903 311.5,111.5C 311.704,114.906 311.038,118.072 309.5,121C 298.17,123.36 287.17,122.36 276.5,118C 274.683,116.2 273.516,114.034 273,111.5C 272.174,74.4287 272.34,37.4287 273.5,0.5 Z"/></g>
<g><path style="opacity:0.936" fill="#f69532" d="M 2.5,25.5 C 13.9102,25.0666 25.2436,25.5666 36.5,27C 38.286,27.7845 39.786,28.9512 41,30.5C 43.9435,36.0636 47.6101,41.0636 52,45.5C 53.605,44.8993 54.9384,43.8993 56,42.5C 59.4676,37.0659 63.301,31.8992 67.5,27C 75.7554,25.4279 84.0887,25.0946 92.5,26C 93.0585,26.7247 93.3918,27.5581 93.5,28.5C 79.3693,47.4636 62.7026,63.9636 43.5,78C 37.6266,81.4363 31.6266,84.603 25.5,87.5C 25.9473,83.7661 27.7807,80.4328 31,77.5C 31.6667,75.1667 31.6667,72.8333 31,70.5C 21.3333,57.1667 11.6667,43.8333 2,30.5C 1.36026,28.735 1.52692,27.0683 2.5,25.5 Z"/></g>
<g><path style="opacity:0.952" fill="#000000" d="M 224.5,25.5 C 238.906,24.5758 251.072,29.2425 261,39.5C 264.538,44.9848 266.538,50.9848 267,57.5C 267.5,78.8307 267.667,100.164 267.5,121.5C 261.491,121.666 255.491,121.499 249.5,121C 247.919,120.293 246.419,119.46 245,118.5C 243.114,114.173 241.947,109.673 241.5,105C 242.159,97.5763 242.492,90.0763 242.5,82.5C 242.606,73.7751 242.106,65.1085 241,56.5C 238.351,50.5037 233.684,47.837 227,48.5C 219,47.5211 214,50.8545 212,58.5C 211.667,79.1667 211.333,99.8333 211,120.5C 209.667,121.167 208.333,121.833 207,122.5C 200.333,121.833 193.667,121.167 187,120.5C 186.333,98.5 186.333,76.5 187,54.5C 188.553,43.2797 194.386,35.113 204.5,30C 211.145,27.7743 217.811,26.2743 224.5,25.5 Z"/></g>
<g><path style="opacity:0.936" fill="#000000" d="M 352.5,25.5 C 383.71,26.3306 399.043,42.4973 398.5,74C 398.923,77.0265 397.923,79.3599 395.5,81C 376.459,80.8532 357.459,81.0199 338.5,81.5C 337.603,88.2235 339.937,93.7235 345.5,98C 350.683,100.815 356.016,101.148 361.5,99C 365.873,95.8136 370.54,93.147 375.5,91C 382.167,90.3333 388.833,90.3333 395.5,91C 394.765,100.13 390.765,107.796 383.5,114C 367.886,123.474 351.553,124.808 334.5,118C 322.958,112.767 315.792,103.934 313,91.5C 311.03,79.8291 311.03,68.1624 313,56.5C 318.434,36.2249 331.601,25.8915 352.5,25.5 Z M 350.5,46.5 C 362.649,45.2179 369.316,50.5512 370.5,62.5C 359.833,62.5 349.167,62.5 338.5,62.5C 339.105,54.5687 343.105,49.2354 350.5,46.5 Z"/></g>
<g><path style="opacity:0.934" fill="#000000" d="M 125.5,26.5 C 165.849,22.3497 183.849,40.183 179.5,80C 169.881,81.0968 160.215,81.5968 150.5,81.5C 141.967,81.4789 133.467,81.1455 125,80.5C 123.274,80.9459 121.774,81.7792 120.5,83C 122.326,95.8289 129.66,101.496 142.5,100C 148.008,96.7453 153.675,93.7453 159.5,91C 165.859,90.1694 172.193,90.3361 178.5,91.5C 176.217,106.97 167.217,116.804 151.5,121C 109.498,125.665 90.6645,106.831 95,64.5C 96.2235,44.4615 106.39,31.7948 125.5,26.5 Z M 133.5,46.5 C 144.708,45.4251 151.708,50.2584 154.5,61C 143.663,62.4758 132.663,62.9758 121.5,62.5C 122.127,54.5577 126.127,49.2243 133.5,46.5 Z"/></g>
<g><path style="opacity:0.917" fill="#000000" d="M 79.5,56.5 C 80.9778,56.238 82.3112,56.5713 83.5,57.5C 80.3333,61.8333 77.1667,66.1667 74,70.5C 73.3333,72.8333 73.3333,75.1667 74,77.5C 83.6667,90.8333 93.3333,104.167 103,117.5C 103.72,119.112 103.554,120.612 102.5,122C 91.8333,122.667 81.1667,122.667 70.5,122C 68.4127,121.208 66.5793,120.041 65,118.5C 61.5465,112.584 57.3798,107.251 52.5,102.5C 47.3407,108.497 42.3407,114.664 37.5,121C 31.4114,122.101 25.2447,122.601 19,122.5C 13.4513,122.478 7.95134,122.144 2.5,121.5C 1.38615,120.277 1.21948,118.944 2,117.5C 5.78298,111.716 10.283,106.55 15.5,102C 39.4518,90.5532 60.7851,75.3865 79.5,56.5 Z"/></g>
</svg>
