<?xml version="1.0" encoding="UTF-8"?>
<!DOCTYPE svg PUBLIC "-//W3C//DTD SVG 1.1//EN" "http://www.w3.org/Graphics/SVG/1.1/DTD/svg11.dtd">
<svg xmlns="http://www.w3.org/2000/svg" version="1.1" width="400px" height="129px" style="shape-rendering:geometricPrecision; text-rendering:geometricPrecision; image-rendering:optimizeQuality; fill-rule:evenodd; clip-rule:evenodd" xmlns:xlink="http://www.w3.org/1999/xlink">
<g><path style="opacity:0.946" fill="#fefefe" d="M 272.5,3.5 C 292.157,0.65783 299.99,8.99116 296,28.5C 296.5,29 297,29.5 297.5,30C 310.527,27.3483 314.027,31.8483 308,43.5C 304.88,46.32 301.213,47.9867 297,48.5C 296.333,66.5 296.333,84.5 297,102.5C 300.904,103.904 304.904,104.904 309,105.5C 311.238,111.616 310.738,117.449 307.5,123C 298.492,124.309 289.492,123.976 280.5,122C 275.929,120.427 273.096,117.26 272,112.5C 271.174,76.0954 271.34,39.762 272.5,3.5 Z"/></g>
<g><path style="opacity:0.944" fill="#f29427" d="M 4.5,28.5 C 15.505,28.3335 26.505,28.5002 37.5,29C 39.286,29.7845 40.786,30.9512 42,32.5C 45.5134,38.1911 49.5134,43.5245 54,48.5C 57.911,43.6776 61.5776,38.6776 65,33.5C 66.5429,31.6217 68.3762,30.1217 70.5,29C 78.1667,28.3333 85.8333,28.3333 93.5,29C 94.0219,29.5613 94.3552,30.228 94.5,31C 78.7238,51.7778 60.0571,69.4444 38.5,84C 34.8333,85.8333 31.1667,87.6667 27.5,89.5C 27.9473,85.7661 29.7807,82.4328 33,79.5C 33.6667,77.5 33.6667,75.5 33,73.5C 23.5791,59.6578 13.9125,45.9912 4,32.5C 3.42094,31.0715 3.58761,29.7382 4.5,28.5 Z"/></g>
<g><path style="opacity:0.955" fill="#fefefe" d="M 128.5,28.5 C 167.329,25.824 184.329,43.6574 179.5,82C 160.833,82.3333 142.167,82.6667 123.5,83C 120.907,92.1203 124.241,98.4537 133.5,102C 136.833,102.667 140.167,102.667 143.5,102C 149.231,98.4676 155.231,95.4676 161.5,93C 167.416,92.1928 173.25,92.3594 179,93.5C 176.68,107.833 168.514,117.333 154.5,122C 117.284,129.406 97.6173,114.24 95.5,76.5C 94.7351,61.2883 99.4017,48.1217 109.5,37C 115.415,33.0389 121.748,30.2055 128.5,28.5 Z M 134.5,48.5 C 146.389,47.5736 152.889,52.9069 154,64.5C 143.582,65.4866 133.082,65.8199 122.5,65.5C 122.634,57.0424 126.634,51.3757 134.5,48.5 Z"/></g>
<g><path style="opacity:0.942" fill="#fefefe" d="M 217.5,28.5 C 229.37,27.2847 240.704,29.118 251.5,34C 259.75,39.6566 264.584,47.4899 266,57.5C 267.671,79.5013 267.837,101.501 266.5,123.5C 261.156,123.666 255.823,123.499 250.5,123C 244.755,121.917 241.922,118.417 242,112.5C 241.667,94.8333 241.333,77.1667 241,59.5C 238.654,52.677 233.82,49.677 226.5,50.5C 219.207,49.64 214.373,52.64 212,59.5C 211.8,80.8638 211.3,102.197 210.5,123.5C 202.58,123.815 194.747,123.482 187,122.5C 186.333,101.167 186.333,79.8333 187,58.5C 189.784,40.8818 199.951,30.8818 217.5,28.5 Z"/></g>
<g><path style="opacity:0.957" fill="#fefefe" d="M 343.5,28.5 C 381.425,26.4273 398.758,44.4273 395.5,82.5C 375.924,82.1737 356.424,82.5071 337,83.5C 336.841,97.3388 343.674,103.505 357.5,102C 363.281,98.5496 369.281,95.5496 375.5,93C 381.5,92.3333 387.5,92.3333 393.5,93C 392.072,105.148 385.739,114.148 374.5,120C 327.503,130.683 306.336,111.85 311,63.5C 313.816,44.1902 324.649,32.5236 343.5,28.5 Z M 349.5,48.5 C 361.352,47.5319 367.852,52.8652 369,64.5C 358.577,65.6524 348.077,65.8191 337.5,65C 336.964,56.3489 340.964,50.8489 349.5,48.5 Z"/></g>
<g><path style="opacity:0.931" fill="#fefefe" d="M 81.5,58.5 C 82.675,58.281 83.675,58.6143 84.5,59.5C 81.5289,64.3035 78.3623,68.9702 75,73.5C 74.3333,75.5 74.3333,77.5 75,79.5C 85.238,93.4014 95.0713,107.568 104.5,122C 104.167,122.5 103.833,123 103.5,123.5C 95.4319,124.476 87.2653,124.809 79,124.5C 73.3182,124.753 68.6516,122.753 65,118.5C 62.0662,112.967 58.3996,107.967 54,103.5C 49.1724,110.352 44.0057,116.852 38.5,123C 27.9066,124.595 17.24,124.928 6.5,124C 5.58377,123.626 4.75044,123.126 4,122.5C 5.06603,119.034 6.7327,115.701 9,112.5C 11.8333,109.667 14.6667,106.833 17.5,104C 41.5161,92.4648 62.8494,77.2981 81.5,58.5 Z"/></g>
</svg>
