<?xml version="1.0" standalone="no"?>
<!DOCTYPE svg PUBLIC "-//W3C//DTD SVG 20010904//EN"
 "http://www.w3.org/TR/2001/REC-SVG-20010904/DTD/svg10.dtd">
<svg version="1.0" xmlns="http://www.w3.org/2000/svg"
 width="400.000000pt" height="124.000000pt" viewBox="0 0 400.000000 124.000000"
 preserveAspectRatio="xMidYMid meet">

<g transform="translate(0.000000,124.000000) scale(0.100000,-0.100000)"
fill="#000000" stroke="none">
<path d="M2734 1207 c-2 -7 -3 -253 -2 -547 3 -597 1 -580 72 -614 57 -28 264
-36 289 -12 21 21 24 145 5 164 -7 7 -31 12 -54 12 -75 0 -74 -3 -74 295 0
251 1 265 19 275 11 5 28 10 39 10 49 0 100 81 86 136 -5 21 -13 23 -72 26
l-67 3 -5 95 c-6 107 -22 142 -72 159 -44 16 -157 14 -164 -2z"/>
<path d="M1260 957 c-116 -28 -186 -78 -239 -171 -94 -165 -84 -461 21 -614
99 -144 369 -197 556 -110 63 30 133 101 165 170 43 91 44 90 -76 86 -101 -3
-104 -4 -174 -46 -80 -49 -125 -59 -176 -43 -73 25 -126 95 -127 169 l0 32
283 0 c222 0 287 3 302 13 16 13 17 24 12 113 -12 206 -92 332 -242 385 -75
26 -227 34 -305 16z m217 -208 c37 -23 73 -84 73 -124 l0 -25 -164 0 c-107 0
-167 4 -171 11 -10 16 22 93 49 118 56 53 146 61 213 20z"/>
<path d="M2180 964 c-14 -3 -54 -14 -89 -26 -85 -28 -159 -98 -192 -183 -22
-58 -23 -73 -27 -383 -3 -242 -1 -327 8 -337 9 -11 37 -15 109 -15 53 0 101 4
108 8 9 5 13 92 15 324 3 302 4 318 24 345 45 62 140 80 222 43 69 -31 72 -47
72 -347 0 -278 6 -323 46 -350 38 -24 175 -31 193 -9 11 13 13 74 8 329 -3
177 -11 333 -17 360 -24 99 -113 192 -213 222 -52 16 -220 28 -267 19z"/>
<path d="M3415 955 c-142 -36 -236 -135 -273 -285 -42 -174 -13 -387 69 -498
133 -182 487 -204 649 -42 37 37 100 151 100 181 0 7 -34 10 -108 7 l-109 -3
-63 -42 c-72 -49 -116 -60 -170 -44 -72 21 -126 88 -132 163 l-3 33 294 5
c261 4 295 7 304 22 8 12 8 49 0 128 -9 96 -16 123 -48 186 -42 87 -101 140
-192 174 -76 29 -233 36 -318 15z m231 -206 c34 -21 74 -90 74 -127 0 -22 -2
-22 -165 -22 -183 0 -186 1 -166 63 15 43 66 93 111 106 46 13 106 5 146 -20z"/>
<path d="M775 629 c-55 -57 -219 -188 -307 -245 -40 -26 -122 -74 -182 -106
-113 -60 -175 -110 -227 -185 -51 -73 -51 -73 137 -73 l167 0 29 33 c16 17 50
61 76 96 26 36 52 66 59 68 7 3 44 -38 82 -90 39 -52 77 -97 86 -101 9 -3 88
-6 176 -6 137 0 159 2 159 15 0 9 -67 111 -150 226 -87 122 -150 220 -150 233
0 13 23 55 50 94 28 39 50 74 50 77 0 14 -19 1 -55 -36z"/>
</g>
</svg>
